<?xml version="1.0" standalone="no"?><!DOCTYPE svg PUBLIC "-//W3C//DTD SVG 1.1//EN" "http://www.w3.org/Graphics/SVG/1.1/DTD/svg11.dtd"><svg t="1673979546298" class="icon" viewBox="0 0 1024 1024" version="1.1" xmlns="http://www.w3.org/2000/svg" p-id="2539" id="mx_n_1673979546299" xmlns:xlink="http://www.w3.org/1999/xlink" width="200" height="200"><path d="M512 719.36c7.68 0 12.8-2.56 17.92-7.68l181.76-181.76c10.24-10.24 10.24-25.6 0-35.84l-181.76-181.76c-5.12-5.12-12.8-7.68-17.92-7.68s-12.8 2.56-17.92 7.68l-181.76 181.76c-10.24 10.24-10.24 25.6 0 35.84l181.76 181.76c5.12 5.12 10.24 7.68 17.92 7.68z m0-353.28l145.92 145.92-145.92 145.92-145.92-145.92 145.92-145.92z" p-id="2540" fill="#e6e6e6"></path><path d="M512 51.2c-102.4 0-202.24 33.28-281.6 97.28V102.4c0-12.8-10.24-25.6-25.6-25.6-12.8 0-25.6 10.24-25.6 25.6v99.84c0 7.68 2.56 15.36 7.68 20.48 2.56 2.56 5.12 5.12 10.24 5.12 2.56 0 5.12 2.56 7.68 2.56h102.4c12.8 0 25.6-10.24 25.6-25.6 0-12.8-10.24-25.6-25.6-25.6h-33.28c69.12-48.64 151.04-76.8 238.08-76.8 225.28 0 409.6 184.32 409.6 409.6 0 15.36 10.24 25.6 25.6 25.6s25.6-10.24 25.6-25.6c0-253.44-207.36-460.8-460.8-460.8zM837.12 801.28c-5.12-5.12-12.8-7.68-20.48-7.68h-102.4c-12.8 0-25.6 10.24-25.6 25.6 0 12.8 10.24 25.6 25.6 25.6h33.28c-69.12 48.64-151.04 76.8-238.08 76.8-225.28 0-409.6-184.32-409.6-409.6 0-15.36-10.24-25.6-25.6-25.6s-25.6 10.24-25.6 25.6c0 253.44 207.36 460.8 460.8 460.8 102.4 0 202.24-33.28 281.6-97.28v46.08c0 12.8 10.24 25.6 25.6 25.6 12.8 0 25.6-10.24 25.6-25.6v-102.4c2.56-5.12 0-12.8-5.12-17.92z" p-id="2541" fill="#e6e6e6"></path></svg>